<svg width="220" height="57" viewBox="0 0 220 57" fill="none" xmlns="http://www.w3.org/2000/svg">
<path d="M155.301 28.4996H136.901V0.0996094H165.301L155.301 28.4996Z" fill="#796253"/>
<path d="M122.7 28.4996C114.858 28.4996 108.5 22.142 108.5 14.2996C108.5 6.45716 114.858 0.0996094 122.7 0.0996094C130.543 0.0996094 136.9 6.45716 136.9 14.2996C136.9 22.142 130.543 28.4996 122.7 28.4996Z" fill="#463335"/>
<path d="M118.6 28.5H136.9V56.8H108.6L118.6 28.5Z" fill="#796253"/>
<path d="M151.101 56.7994C143.258 56.7994 136.901 50.4419 136.901 42.5994C136.901 34.757 143.258 28.3994 151.101 28.3994C158.943 28.3994 165.301 34.757 165.301 42.5994C165.301 50.4419 158.943 56.7994 151.101 56.7994Z" fill="#463335"/>
<path d="M82.6007 0.0996094C66.9007 0.0996094 54.3008 12.7996 54.3008 28.3996C54.3008 43.9996 67.0007 56.6996 82.6007 56.6996C98.2007 56.6996 110.901 43.9996 110.901 28.3996C110.901 12.7996 98.2007 0.0996094 82.6007 0.0996094ZM82.6007 35.4996C78.7007 35.4996 75.5007 32.2996 75.5007 28.3996C75.5007 24.4996 78.7007 21.2996 82.6007 21.2996C86.5007 21.2996 89.7007 24.4996 89.7007 28.3996C89.7007 32.2996 86.5007 35.4996 82.6007 35.4996Z" fill="#463335"/>
<path d="M191.2 0.0996094C175.5 0.0996094 162.9 12.7996 162.9 28.3996C162.9 43.9996 175.6 56.6996 191.2 56.6996C206.8 56.6996 219.5 43.9996 219.5 28.3996C219.5 12.7996 206.8 0.0996094 191.2 0.0996094ZM191.2 35.4996C187.3 35.4996 184.1 32.2996 184.1 28.3996C184.1 24.4996 187.3 21.2996 191.2 21.2996C195.1 21.2996 198.3 24.4996 198.3 28.3996C198.3 32.2996 195.1 35.4996 191.2 35.4996Z" fill="#463335"/>
<path d="M14.2 0.100006H28.4V28.4H14.2C6.39995 28.4 0 22 0 14.2C0 6.40001 6.39995 0 14.2 0V0.100006Z" fill="#796253"/>
<path d="M28.3008 28.4996V0.0996094H56.7007L28.3008 28.4996Z" fill="#463335"/>
<path d="M42.4993 56.8004H28.2993L28.2993 28.5004L42.4993 28.5004C50.2993 28.5004 56.6992 34.9004 56.6992 42.7004C56.6992 50.5004 50.2993 56.9004 42.4993 56.9004V56.8004Z" fill="#796253"/>
<path d="M28.3 28.5V56.8H0L28.3 28.5Z" fill="#463335"/>
</svg>
